<svg width="229" height="182" viewBox="0 0 229 182" fill="none" xmlns="http://www.w3.org/2000/svg">
<path d="M194.438 123.445L225.447 116.998L228.875 116.283L226.221 103.521L194.438 110.127V0H34.438V110.129L2.654 103.521L0 116.284L34.438 123.445V144.486L0.004 152.014L1.759 160.468L34.438 154.398V182H194.438V154.398L226.875 160.424L227.116 160.468L228.871 152.014L194.438 144.485V123.445Z" fill="#FF8C00"/>
<g clip-path="url(#clip0)">
<path d="M163.078 61.135C163.506 60.202 163.752 59.168 163.752 58.076C163.752 57.143 163.578 56.234 163.242 55.385C164.578 53.972 165.341 52.097 165.341 50.1C165.341 45.851 161.884 42.395 157.635 42.395C156.785 42.395 155.947 42.537 155.153 42.808C153.959 40.77 151.655 39.442 149.169 39.603C147.747 37.731 145.504 36.583 143.106 36.583C142.761 36.583 142.419 36.606 142.083 36.651C140.752 34.333 138.26 32.832 135.489 32.832C132.538 32.832 129.886 34.564 128.637 37.136C127.817 37.172 127.035 37.362 126.322 37.677C125.637 36.115 124.425 34.807 122.878 34.031C121.896 30.562 118.698 28.073 114.999 28.073C113.138 28.073 111.35 28.707 109.913 29.848C108.391 29.343 106.686 29.408 105.218 30.016C103.846 29.15 102.158 28.799 100.523 29.072C98.969 27.743 96.989 27 94.925 27C91.305 27 88.136 29.25 86.883 32.529C82.809 33.21 79.695 36.761 79.695 41.026C79.695 41.75 79.793 42.462 79.968 43.151C79.664 43.109 79.357 43.082 79.047 43.082C76.476 43.082 74.205 44.52 73.067 46.697C72.922 46.688 72.777 46.683 72.632 46.683C68.908 46.683 65.878 49.713 65.878 53.437C65.878 54.545 66.151 55.627 66.665 56.594C66.151 57.56 65.878 58.642 65.878 59.751C65.878 60.226 65.928 60.688 66.022 61.135H61C61.511 83.312 75.57 102.133 95.227 109.652V117.64H133.286V109.652C152.942 102.132 167.002 83.312 167.513 61.135H163.078V61.135ZM70.264 61.135C70.024 60.727 69.877 60.258 69.877 59.751C69.877 59.079 70.126 58.431 70.577 57.925C71.253 57.167 71.253 56.023 70.577 55.264C70.125 54.757 69.877 54.108 69.877 53.437C69.877 51.918 71.112 50.683 72.631 50.683C72.97 50.683 73.309 50.748 73.638 50.877C74.198 51.097 74.825 51.052 75.347 50.758C75.87 50.464 76.233 49.95 76.337 49.36C76.568 48.04 77.707 47.083 79.045 47.083C79.887 47.083 80.487 47.45 80.843 47.757C81.594 48.407 82.709 48.407 83.46 47.757C83.796 47.466 84.359 47.132 85.131 47.096C85.102 47.143 85.068 47.186 85.04 47.234C84.168 48.71 83.771 50.393 83.892 52.1C83.967 53.154 84.845 53.958 85.885 53.958C85.932 53.958 85.98 53.956 86.029 53.953C87.131 53.875 87.961 52.918 87.883 51.816C87.82 50.923 88.028 50.042 88.485 49.268C89.724 47.173 92.437 46.476 94.533 47.712C95.484 48.274 96.71 47.958 97.272 47.006C97.834 46.055 97.518 44.829 96.566 44.267C94.033 42.771 91.029 42.764 88.567 43.974C87.259 43.251 85.723 42.982 84.253 43.19C83.899 42.527 83.695 41.791 83.695 41.025C83.695 38.48 85.765 36.41 88.24 36.408C88.282 36.41 88.381 36.414 88.424 36.414C89.389 36.414 90.217 35.724 90.391 34.774C90.791 32.588 92.698 31 94.925 31C96.262 31 97.534 31.584 98.415 32.604C98.965 33.239 99.854 33.464 100.639 33.165C101.683 32.77 102.83 33.039 103.587 33.809C104.28 34.513 105.382 34.606 106.183 34.029C107.08 33.383 108.311 33.341 109.249 33.925C110.086 34.447 111.179 34.281 111.823 33.534C112.623 32.605 113.781 32.073 114.998 32.073C117.102 32.073 118.889 33.647 119.154 35.735C119.253 36.52 119.804 37.172 120.562 37.399C121.962 37.819 122.94 39.135 122.94 40.598C122.94 41.419 122.634 42.211 122.081 42.828C121.392 43.597 121.4 44.763 122.1 45.521C122.913 46.401 123.262 47.576 123.056 48.745C122.875 49.767 122.299 50.651 121.432 51.234C120.944 51.562 120.625 52.088 120.561 52.672C120.496 53.256 120.69 53.839 121.094 54.267C121.926 55.149 122.283 56.334 122.075 57.519C121.884 58.607 122.611 59.644 123.699 59.835C123.816 59.856 123.931 59.865 124.047 59.865C125 59.865 125.844 59.182 126.015 58.212C126.318 56.489 126.018 54.718 125.206 53.196C126.127 52.142 126.745 50.855 126.995 49.438C127.303 47.69 127.004 45.942 126.185 44.423C126.351 44.146 126.459 43.83 126.474 43.485C126.531 42.165 127.609 41.131 128.927 41.131C129.115 41.131 129.316 41.157 129.527 41.209C130.053 41.337 130.609 41.249 131.066 40.961C131.525 40.673 131.847 40.212 131.961 39.683C132.313 38.031 133.797 36.832 135.488 36.832C137.129 36.832 138.562 37.942 138.976 39.533C139.122 40.097 139.507 40.569 140.031 40.825C140.553 41.082 141.162 41.097 141.698 40.868C142.14 40.679 142.615 40.583 143.105 40.583C144.496 40.583 145.777 41.4 146.371 42.664C146.8 43.579 147.846 44.03 148.804 43.715C150.316 43.217 151.902 44.326 152.024 45.85C152.083 46.593 152.549 47.241 153.235 47.532C153.923 47.823 154.713 47.708 155.288 47.236C155.956 46.686 156.768 46.395 157.636 46.395C159.679 46.395 161.342 48.057 161.342 50.1C161.342 51.367 160.701 52.534 159.628 53.22C159.163 53.519 158.841 53.996 158.74 54.54C158.639 55.085 158.768 55.645 159.096 56.091C159.526 56.673 159.752 57.36 159.752 58.076C159.752 59.437 158.936 60.606 157.77 61.135H70.264V61.135Z" fill="#242230"/>
</g>
<g clip-path="url(#clip1)">
<path d="M137.617 130.99L224.602 112.908L223.373 107L137.457 124.857L114.3 129.92L91.125 124.854L5.229 107L4 112.908L91.027 131L100.938 132.841L4 154.031L4.355 155.738L114.297 135.321L224.246 155.738L224.602 154.031L127.658 132.84L137.617 130.99Z" fill="#242230"/>
</g>
<defs>
<clipPath id="clip0">
<rect width="106.512" height="90.64" fill="white" transform="translate(61 27)"/>
</clipPath>
<clipPath id="clip1">
<rect width="220.602" height="48.738" fill="white" transform="translate(4 107)"/>
</clipPath>
</defs>
</svg>
