<svg width="24" height="20" viewBox="0 0 24 20" fill="none" xmlns="http://www.w3.org/2000/svg">
<path d="M20.3889 12.9445L23.6405 12.2685L24 12.1935L23.7217 10.8553L20.3889 11.548V0H3.61119V11.5482L0.2783 10.8553L0 12.1936L3.61119 12.9445V15.1509L0.000419443 15.9403L0.18445 16.8268L3.61119 16.1903V19.0847H20.3889V16.1903L23.7903 16.8222L23.8155 16.8268L23.9996 15.9403L20.3889 15.1508V12.9445Z" fill="#FF8C00"/>
<g clip-path="url(#clip0)">
<path d="M17.1005 6.41066C17.1453 6.31282 17.1711 6.2044 17.1711 6.08989C17.1711 5.99205 17.1529 5.89674 17.1177 5.80771C17.2577 5.65954 17.3378 5.46293 17.3378 5.25352C17.3378 4.80797 16.9753 4.44557 16.5297 4.44557C16.4406 4.44557 16.3527 4.46046 16.2694 4.48888C16.1442 4.27517 15.9026 4.13591 15.6419 4.1528C15.4928 3.9565 15.2576 3.83612 15.0062 3.83612C14.97 3.83612 14.9341 3.83853 14.8989 3.84325C14.7593 3.60018 14.498 3.44279 14.2075 3.44279C13.898 3.44279 13.6199 3.6244 13.4889 3.89411C13.403 3.89788 13.321 3.9178 13.2462 3.95084C13.1744 3.78704 13.0473 3.64989 12.8851 3.56851C12.7821 3.20475 12.4467 2.94375 12.0589 2.94375C11.8637 2.94375 11.6762 3.01024 11.5255 3.12988C11.3659 3.07693 11.1872 3.08374 11.0332 3.1475C10.8893 3.05669 10.7123 3.01988 10.5409 3.04851C10.3779 2.90915 10.1703 2.83124 9.95388 2.83124C9.57429 2.83124 9.24199 3.06717 9.11059 3.41101C8.68339 3.48242 8.35686 3.85478 8.35686 4.30201C8.35686 4.37793 8.36713 4.45259 8.38548 4.52484C8.35361 4.52044 8.32141 4.51761 8.28891 4.51761C8.01931 4.51761 7.78117 4.6684 7.66184 4.89668C7.64663 4.89574 7.63143 4.89521 7.61622 4.89521C7.22572 4.89521 6.90799 5.21294 6.90799 5.60344C6.90799 5.71963 6.93662 5.83309 6.99052 5.93449C6.93662 6.03578 6.90799 6.14924 6.90799 6.26553C6.90799 6.31534 6.91324 6.36379 6.92309 6.41066H6.39648C6.45007 8.73616 7.92431 10.7097 9.98555 11.4982V12.3358H13.9764V11.4982C16.0376 10.7096 17.5119 8.73616 17.5655 6.41066H17.1005ZM7.36791 6.41066C7.34275 6.36788 7.32733 6.3187 7.32733 6.26553C7.32733 6.19507 7.35344 6.12712 7.40074 6.07406C7.47162 5.99457 7.47162 5.87461 7.40074 5.79502C7.35334 5.74186 7.32733 5.6738 7.32733 5.60344C7.32733 5.44416 7.45684 5.31465 7.61612 5.31465C7.65167 5.31465 7.68722 5.32147 7.72171 5.335C7.78044 5.35807 7.84618 5.35335 7.90092 5.32252C7.95576 5.29169 7.99383 5.23779 8.00473 5.17592C8.02896 5.03751 8.14839 4.93716 8.2887 4.93716C8.37699 4.93716 8.43991 4.97564 8.47724 5.00783C8.55599 5.07599 8.67291 5.07599 8.75166 5.00783C8.78689 4.97732 8.84593 4.94229 8.92688 4.93852C8.92384 4.94345 8.92027 4.94796 8.91734 4.95299C8.8259 5.10776 8.78427 5.28425 8.79696 5.46324C8.80482 5.57377 8.89689 5.65807 9.00594 5.65807C9.01087 5.65807 9.01591 5.65786 9.02104 5.65755C9.1366 5.64937 9.22363 5.54902 9.21546 5.43346C9.20885 5.33982 9.23066 5.24744 9.27858 5.16628C9.4085 4.94659 9.69299 4.87351 9.91278 5.00311C10.0125 5.06204 10.1411 5.02891 10.2 4.92908C10.2589 4.82936 10.2258 4.7008 10.126 4.64187C9.86035 4.485 9.54535 4.48426 9.28718 4.61114C9.15002 4.53533 8.98896 4.50712 8.83481 4.52893C8.79769 4.45941 8.7763 4.38223 8.7763 4.30191C8.7763 4.03504 8.99336 3.81798 9.25289 3.81777C9.25729 3.81798 9.26768 3.8184 9.27219 3.8184C9.37338 3.8184 9.4602 3.74604 9.47845 3.64643C9.52039 3.4172 9.72036 3.25068 9.95388 3.25068C10.0941 3.25068 10.2275 3.31192 10.3198 3.41888C10.3775 3.48546 10.4707 3.50906 10.5531 3.4777C10.6625 3.43628 10.7828 3.46449 10.8622 3.54523C10.9349 3.61906 11.0504 3.62881 11.1344 3.5683C11.2285 3.50056 11.3576 3.49616 11.4559 3.5574C11.5437 3.61214 11.6583 3.59473 11.7258 3.5164C11.8097 3.41898 11.9311 3.3632 12.0588 3.3632C12.2794 3.3632 12.4668 3.52825 12.4946 3.7472C12.5049 3.82951 12.5627 3.89788 12.6422 3.92168C12.789 3.96573 12.8916 4.10372 12.8916 4.25713C12.8916 4.34322 12.8595 4.42627 12.8015 4.49097C12.7292 4.57161 12.7301 4.69388 12.8035 4.77336C12.8887 4.86564 12.9253 4.98885 12.9037 5.11143C12.8847 5.2186 12.8243 5.3113 12.7334 5.37243C12.6823 5.40683 12.6488 5.46198 12.6421 5.52322C12.6353 5.58446 12.6556 5.6456 12.698 5.69048C12.7852 5.78296 12.8227 5.90722 12.8009 6.03148C12.7808 6.14557 12.8571 6.25431 12.9711 6.27434C12.9834 6.27654 12.9955 6.27749 13.0076 6.27749C13.1076 6.27749 13.1961 6.20587 13.214 6.10415C13.2458 5.92348 13.2143 5.73777 13.1292 5.57817C13.2257 5.46765 13.2906 5.33269 13.3168 5.1841C13.3491 5.00081 13.3177 4.81751 13.2318 4.65823C13.2492 4.62918 13.2606 4.59604 13.2621 4.55987C13.2681 4.42145 13.3812 4.31302 13.5194 4.31302C13.5391 4.31302 13.5602 4.31575 13.5823 4.3212C13.6374 4.33463 13.6957 4.3254 13.7437 4.2952C13.7918 4.265 13.8256 4.21666 13.8375 4.16119C13.8744 3.98796 14.03 3.86223 14.2074 3.86223C14.3794 3.86223 14.5297 3.97862 14.5731 4.14546C14.5884 4.2046 14.6288 4.25409 14.6837 4.28094C14.7385 4.30789 14.8023 4.30946 14.8585 4.28545C14.9049 4.26563 14.9547 4.25556 15.0061 4.25556C15.1519 4.25556 15.2863 4.34123 15.3485 4.47378C15.3935 4.56972 15.5032 4.61702 15.6037 4.58398C15.7622 4.53176 15.9285 4.64805 15.9413 4.80786C15.9475 4.88577 15.9964 4.95372 16.0683 4.98424C16.1405 5.01475 16.2233 5.00269 16.2836 4.9532C16.3536 4.89553 16.4388 4.86501 16.5298 4.86501C16.744 4.86501 16.9184 5.03929 16.9184 5.25352C16.9184 5.38638 16.8512 5.50875 16.7387 5.58069C16.6899 5.61204 16.6562 5.66206 16.6456 5.7191C16.635 5.77625 16.6485 5.83497 16.6829 5.88174C16.728 5.94277 16.7517 6.01481 16.7517 6.08989C16.7517 6.23261 16.6661 6.35519 16.5439 6.41066H7.36791Z" fill="white"/>
</g>
<g clip-path="url(#clip1)">
<path d="M14.4306 13.7357L23.5519 11.8396L23.423 11.2201L14.4138 13.0926L11.9856 13.6235L9.55543 13.0923L0.548307 11.2201L0.419434 11.8396L9.54515 13.7368L10.5844 13.9298L0.419434 16.1518L0.456659 16.3308L11.9853 14.1899L23.5146 16.3308L23.5519 16.1518L13.3863 13.9297L14.4306 13.7357Z" fill="white"/>
</g>
<defs>
<clipPath id="clip0">
<rect width="11.1689" height="9.50458" fill="white" transform="translate(6.39648 2.83124)"/>
</clipPath>
<clipPath id="clip1">
<rect width="23.1325" height="5.1107" fill="white" transform="translate(0.419434 11.2201)"/>
</clipPath>
</defs>
</svg>
